#!OML:ASF I:\Actors\actors\Patient Classification 2\Patient 1\Session 1\actor1.ASF
:FULLY-SPECIFIED
:DEGREES
236
root -0.580014 18.745 5.68705 3.97155 -2.99083 -2.51304
lowerback 2.38114 1.48157 -3.61202
upperback -0.150212 1.8438 -1.71062
thorax -1.54695 0.942128 0.198992
lowerneck -13.1706 -2.75616 -2.36377
upperneck 32.8529 -4.83483 4.22059
head 13.4225 -1.86769 1.33764
rclavicle -3.926e-014 9.54166e-015
rhumerus -9.15388 33.9099 -85.0166
rradius 81.6057
rwrist 12.6016
rhand -8.86377 -62.7942
rfingers 7.12502
rthumb 17.0776 -267.936
lclavicle -3.926e-014 9.54166e-015
lhumerus -7.78395 -32.2996 86.0485
lradius 75.8781
lwrist -5.96186
lhand 13.3007 -28.3239
lfingers 7.12502
lthumb 38.2498 -2.59305
rfemur 0 0 0
rtibia 0
rfoot 0 0
rtoes 0
lfemur -6.48458 -6.42505 -12.0892
ltibia 22.1304
lfoot -24.4026 16.2075
ltoes -53.9501
237
root -0.576891 18.7445 5.68613 3.90815 -3.20798 -2.46077
lowerback 2.43747 1.57769 -3.63322
upperback -0.11633 1.96922 -1.7202
thorax -1.54796 1.00447 0.194925
lowerneck -13.2427 -2.78442 -2.44823
upperneck 32.9062 -4.86429 4.25011
head 13.4663 -1.88506 1.35936
rclavicle 1.2424e-014 -2.46493e-014
rhumerus -9.09697 34.0136 -85.0906
rradius 81.4159
rwrist 12.8364
rhand -11.124 -63.2236
rfingers 7.12502
rthumb 14.9011 -267.332
lclavicle 1.2424e-014 -2.46493e-014
lhumerus -7.69374 -32.2727 86.0188
lradius 75.8288
lwrist -5.98583
lhand 13.1792 -28.3217
lfingers 7.12502
lthumb 38.1351 -2.55934
rfemur 0 0 0
rtibia 0
rfoot 0 0
rtoes 0
lfemur -6.36652 -6.29816 -12.1895
ltibia 22.131
lfoot -24.4765 16.2743
ltoes -53.945
238
root -0.575584 18.7441 5.68622 3.85165 -3.32921 -2.41282
lowerback 2.5022 1.63527 -3.6489
upperback -0.098964 2.04235 -1.73628
thorax -1.56865 1.04107 0.182515
lowerneck -13.2453 -2.80409 -2.51063
upperneck 32.9177 -4.88711 4.28294
head 13.4758 -1.89812 1.37989
rclavicle -7.55382e-015 -1.11319e-014
rhumerus -9.38825 34.1879 -85.2345
rradius 81.8241
rwrist 13.0205
rhand -9.07791 -63.2233
rfingers 7.12502
rthumb 16.8714 -267.49
lclavicle -7.55382e-015 -1.11319e-014
lhumerus -7.62188 -32.2456 85.9913
lradius 75.7636
lwrist -6.02626
lhand 13.0707 -28.3558
lfingers 7.12502
lthumb 38.0326 -2.5655
rfemur 0 0 0
rtibia 0
rfoot 0 0
rtoes 0
lfemur -6.28421 -6.15299 -12.2606
ltibia 22.1425
lfoot -24.5025 16.268
ltoes -53.9754
239
root -0.575582 18.7437 5.68543 3.82689 -3.2058 -2.36646
lowerback 2.56683 1.59758 -3.64939
upperback -0.0974718 1.98836 -1.76466
thorax -1.60072 1.01441 0.153977
lowerneck -13.1818 -2.80607 -2.54205
upperneck 32.8866 -4.90279 4.34876
head 13.4522 -1.90165 1.40942
rclavicle 3.97569e-015 1.51076e-014
rhumerus -9.92207 34.4313 -85.4349
rradius 82.6905
rwrist 12.984
rhand -11.3893 -62.7677
rfingers 7.12502
rthumb 14.6454 -267.769
lclavicle 3.97569e-015 1.51076e-014
lhumerus -7.57795 -32.198 85.9365
lradius 75.7217
lwrist -6.07487
lhand 12.9989 -28.3426
lfingers 7.12502
lthumb 37.9648 -2.53382
rfemur 0 0 0
rtibia 0
rfoot 0 0
rtoes 0
lfemur -6.30726 -6.16837 -12.2959
ltibia 22.1633
lfoot -24.4782 16.1555
ltoes -53.9302
240
root -0.575151 18.7435 5.68606 3.82737 -2.91374 -2.36162
lowerback 2.58999 1.4885 -3.5641
upperback -0.0926796 1.84422 -1.80003
thorax -1.60053 0.941688 0.075713
lowerneck -13.1067 -2.79642 -2.5734
upperneck 32.869 -4.90959 4.43532
head 13.4323 -1.89883 1.44876
rclavicle 0 -3.18055e-015
rhumerus -10.6294 34.7338 -85.6806
rradius 83.844
rwrist 12.7948
rhand -10.297 -63.018
rfingers 7.12502
rthumb 15.6976 -267.599
lclavicle 0 -3.18055e-015
lhumerus -7.55975 -32.1152 85.8429
lradius 75.7261
lwrist -6.0646
lhand 13.054 -28.288
lfingers 7.12502
lthumb 38.0169 -2.4934
rfemur 0 0 0
rtibia 0
rfoot 0 0
rtoes 0
lfemur -6.41028 -6.27318 -12.2658
ltibia 22.2009
lfoot -24.3552 15.981
ltoes -53.924
